<?xml version="1.0" encoding="UTF-8" standalone="no"?><!DOCTYPE svg PUBLIC "-//W3C//DTD SVG 1.1//EN" "http://www.w3.org/Graphics/SVG/1.1/DTD/svg11.dtd"><svg width="100%" height="100%" viewBox="0 0 61 60" version="1.1" xmlns="http://www.w3.org/2000/svg" xmlns:xlink="http://www.w3.org/1999/xlink" xml:space="preserve" xmlns:serif="http://www.serif.com/" style="fill-rule:evenodd;clip-rule:evenodd;stroke-linejoin:round;stroke-miterlimit:2;"><rect id="feedback-icon" x="0.263" y="0" width="60" height="60" style="fill:none;"/><path id="info-icon" d="M30.263,1c-15.929,0 -29,13.072 -29,29c-0,15.928 13.071,29 29,29c15.928,0 29,-13.072 29,-29c-0,-15.928 -13.072,-29 -29,-29Zm3.398,45.992l-6.797,0l0,-23.789l6.797,0l0,23.789Zm-3.398,-27.187c-1.874,-0 -3.399,-1.525 -3.399,-3.399c0,-1.873 1.525,-3.398 3.399,-3.398c1.873,-0 3.398,1.525 3.398,3.398c0,1.874 -1.525,3.399 -3.398,3.399Z" style="fill:#1d70b8;fill-rule:nonzero;"/></svg>