<?xml version="1.0" encoding="UTF-8" standalone="no"?><!DOCTYPE svg PUBLIC "-//W3C//DTD SVG 1.1//EN" "http://www.w3.org/Graphics/SVG/1.1/DTD/svg11.dtd"><svg width="100%" height="100%" viewBox="0 0 61 60" version="1.1" xmlns="http://www.w3.org/2000/svg" xmlns:xlink="http://www.w3.org/1999/xlink" xml:space="preserve" xmlns:serif="http://www.serif.com/" style="fill-rule:evenodd;clip-rule:evenodd;stroke-linejoin:round;stroke-miterlimit:2;"><rect id="question-icon" x="0.525" y="0" width="60" height="60" style="fill:none;"/><path id="question-icon1" serif:id="question-icon" d="M30.525,1c-15.928,0 -29,13.072 -29,29c0,15.928 13.072,29 29,29c15.929,-0 29,-13.072 29,-29c0,-15.928 -13.071,-29 -29,-29Zm0,47.691c-1.873,0 -3.398,-1.525 -3.398,-3.398c-0,-1.873 1.525,-3.398 3.398,-3.398c1.874,-0 3.399,1.525 3.399,3.398c-0,1.873 -1.525,3.398 -3.399,3.398Zm6.022,-18.963c-1.692,1.244 -2.623,2.834 -2.623,4.475l-0,4.293l-6.797,0l-0,-4.293c-0,-3.808 1.968,-7.437 5.4,-9.955c0.887,-0.65 1.397,-1.651 1.397,-2.744c-0,-1.874 -1.525,-3.399 -3.399,-3.399c-1.873,0 -3.398,1.525 -3.398,3.399l-6.797,-0c0,-5.622 4.573,-10.195 10.195,-10.195c5.622,-0 10.196,4.573 10.196,10.195c-0,3.232 -1.56,6.307 -4.174,8.224Z" style="fill-rule:nonzero;"/></svg>