<?xml version="1.0" encoding="UTF-8" standalone="no"?><!DOCTYPE svg PUBLIC "-//W3C//DTD SVG 1.1//EN" "http://www.w3.org/Graphics/SVG/1.1/DTD/svg11.dtd"><svg width="100%" height="100%" viewBox="0 0 61 61" version="1.1" xmlns="http://www.w3.org/2000/svg" xmlns:xlink="http://www.w3.org/1999/xlink" xml:space="preserve" xmlns:serif="http://www.serif.com/" style="fill-rule:evenodd;clip-rule:evenodd;stroke-linejoin:round;stroke-miterlimit:2;"><rect id="warn-icon" x="0.263" y="0.13" width="60" height="60" style="fill:none;"/><path d="M58.366,47.573l-22.179,-42.501c-1.222,-2.468 -3.435,-3.942 -5.924,-3.942c-2.489,-0 -4.703,1.474 -5.908,3.91l-22.209,42.565c-1.198,2.421 -1.176,5.298 0.057,7.696c1.231,2.398 3.425,3.829 5.867,3.829l44.387,-0c2.442,-0 4.636,-1.431 5.868,-3.829c1.233,-2.398 1.254,-5.275 0.041,-7.728Zm-24.705,1.89l-6.797,0l0,-7.733l6.797,-0l0,7.733Zm0,-11.6l-6.797,0l0,-19.333l6.797,-0l0,19.333Z" style="fill:#f47738;fill-rule:nonzero;"/></svg>