<?xml version="1.0" encoding="UTF-8" standalone="no"?>
<!DOCTYPE svg PUBLIC "-//W3C//DTD SVG 1.1//EN" "http://www.w3.org/Graphics/SVG/1.1/DTD/svg11.dtd">
<svg width="100%" height="100%" viewBox="0 0 960 640" version="1.1" xmlns="http://www.w3.org/2000/svg" xmlns:xlink="http://www.w3.org/1999/xlink" xml:space="preserve" xmlns:serif="http://www.serif.com/" style="fill-rule:evenodd;clip-rule:evenodd;stroke-linejoin:round;stroke-miterlimit:2;">
    <g transform="matrix(1,0,0,1,-1068,0)">
        <g id="Search" transform="matrix(1,0,0,1,1068,0)">
            <rect x="0" y="0" width="960" height="640" style="fill:#fff;"/>
            <path d="M0,40L0,10C0,4.5 4.5,0 10,0L950,0C955.5,0 960,4.5 960,10L960,40" style="fill:#dadada;fill-rule:nonzero;"/>
            <circle cx="25.4" cy="20" r="8.5" style="fill:#fff;"/>
            <circle cx="49.1" cy="20" r="8.5" style="fill:#fff;"/>
            <circle cx="72.9" cy="20" r="8.5" style="fill:#fff;"/>
            <rect x="1" y="40" width="958" height="65" style="fill:#0b0b0b;fill-rule:nonzero;"/>
            <g transform="matrix(1,0,0,1,-298.669,-0.549386)">
                <g transform="matrix(40,0,0,40,332.569,86.4307)">
                    <path d="M0.226,-0.132L0.226,-0.582L0.338,-0.582C0.377,-0.582 0.409,-0.576 0.436,-0.566C0.462,-0.555 0.483,-0.539 0.499,-0.518C0.515,-0.497 0.527,-0.472 0.534,-0.444C0.541,-0.415 0.544,-0.382 0.544,-0.346C0.544,-0.307 0.539,-0.273 0.529,-0.246C0.519,-0.219 0.506,-0.197 0.489,-0.18C0.472,-0.163 0.453,-0.15 0.432,-0.143C0.411,-0.136 0.389,-0.132 0.366,-0.132L0.226,-0.132ZM0.069,-0.714L0.069,-0L0.377,-0C0.432,-0 0.479,-0.009 0.52,-0.028C0.56,-0.046 0.594,-0.071 0.621,-0.103C0.648,-0.135 0.668,-0.173 0.681,-0.217C0.694,-0.261 0.701,-0.309 0.701,-0.361C0.701,-0.42 0.693,-0.472 0.677,-0.516C0.66,-0.56 0.638,-0.597 0.609,-0.626C0.58,-0.655 0.545,-0.677 0.506,-0.692C0.466,-0.707 0.423,-0.714 0.377,-0.714L0.069,-0.714Z" style="fill:#e6e6e6;fill-rule:nonzero;"/>
                </g>
                <g transform="matrix(40,0,0,40,362.209,86.4307)">
                    <path d="M0.2,-0.597L0.2,-0.714L0.058,-0.714L0.058,-0.597L0.2,-0.597ZM0.058,-0.517L0.058,-0L0.2,-0L0.2,-0.517L0.058,-0.517Z" style="fill:#e6e6e6;fill-rule:nonzero;"/>
                </g>
                <g transform="matrix(40,0,0,40,372.529,86.4307)">
                    <path d="M0.295,-0.122C0.273,-0.122 0.255,-0.127 0.24,-0.136C0.225,-0.145 0.214,-0.157 0.205,-0.172C0.196,-0.187 0.189,-0.203 0.186,-0.222C0.182,-0.24 0.18,-0.258 0.18,-0.277C0.18,-0.296 0.182,-0.315 0.187,-0.333C0.191,-0.35 0.198,-0.366 0.208,-0.38C0.217,-0.393 0.229,-0.404 0.244,-0.412C0.258,-0.42 0.275,-0.424 0.295,-0.424C0.318,-0.424 0.338,-0.42 0.353,-0.411C0.368,-0.402 0.381,-0.391 0.39,-0.376C0.399,-0.361 0.406,-0.345 0.41,-0.326C0.414,-0.307 0.416,-0.286 0.416,-0.265C0.416,-0.246 0.414,-0.229 0.409,-0.212C0.404,-0.195 0.396,-0.179 0.386,-0.166C0.376,-0.153 0.363,-0.142 0.348,-0.134C0.333,-0.126 0.315,-0.122 0.295,-0.122ZM0.551,-0.033L0.551,-0.517L0.416,-0.517L0.416,-0.448L0.414,-0.448C0.397,-0.478 0.375,-0.499 0.35,-0.512C0.324,-0.525 0.294,-0.531 0.26,-0.531C0.224,-0.531 0.192,-0.524 0.165,-0.51C0.137,-0.496 0.114,-0.477 0.095,-0.454C0.076,-0.43 0.062,-0.403 0.053,-0.372C0.043,-0.341 0.038,-0.308 0.038,-0.275C0.038,-0.24 0.042,-0.206 0.051,-0.175C0.059,-0.143 0.072,-0.115 0.09,-0.092C0.108,-0.068 0.131,-0.049 0.159,-0.036C0.187,-0.022 0.22,-0.015 0.259,-0.015C0.29,-0.015 0.32,-0.022 0.349,-0.035C0.377,-0.048 0.399,-0.068 0.414,-0.095L0.416,-0.095L0.416,-0.027C0.417,0.01 0.408,0.04 0.39,0.064C0.371,0.088 0.342,0.1 0.302,0.1C0.277,0.1 0.254,0.095 0.235,0.085C0.216,0.074 0.203,0.056 0.196,0.029L0.055,0.029C0.057,0.058 0.065,0.084 0.08,0.105C0.094,0.126 0.112,0.143 0.134,0.156C0.155,0.169 0.179,0.179 0.206,0.186C0.232,0.192 0.258,0.195 0.283,0.195C0.342,0.195 0.39,0.187 0.425,0.171C0.46,0.155 0.487,0.135 0.506,0.113C0.525,0.09 0.537,0.065 0.543,0.038C0.548,0.011 0.551,-0.012 0.551,-0.033Z" style="fill:#e6e6e6;fill-rule:nonzero;"/>
                </g>
                <g transform="matrix(40,0,0,40,396.969,86.4307)">
                    <path d="M0.2,-0.597L0.2,-0.714L0.058,-0.714L0.058,-0.597L0.2,-0.597ZM0.058,-0.517L0.058,-0L0.2,-0L0.2,-0.517L0.058,-0.517Z" style="fill:#e6e6e6;fill-rule:nonzero;"/>
                </g>
                <g transform="matrix(40,0,0,40,407.289,86.4307)">
                    <path d="M0.234,-0.517L0.234,-0.672L0.092,-0.672L0.092,-0.517L0.006,-0.517L0.006,-0.422L0.092,-0.422L0.092,-0.117C0.092,-0.091 0.096,-0.07 0.105,-0.054C0.114,-0.038 0.126,-0.026 0.141,-0.017C0.156,-0.008 0.173,-0.003 0.193,0.001C0.212,0.004 0.233,0.005 0.255,0.005C0.269,0.005 0.283,0.005 0.298,0.004C0.313,0.003 0.326,0.002 0.338,-0L0.338,-0.11C0.331,-0.109 0.324,-0.108 0.317,-0.107C0.31,-0.106 0.302,-0.106 0.294,-0.106C0.27,-0.106 0.254,-0.11 0.246,-0.118C0.238,-0.126 0.234,-0.142 0.234,-0.166L0.234,-0.422L0.338,-0.422L0.338,-0.517L0.234,-0.517Z" style="fill:#e6e6e6;fill-rule:nonzero;"/>
                </g>
                <g transform="matrix(40,0,0,40,421.369,86.4307)">
                    <path d="M0.048,-0.358C0.05,-0.391 0.058,-0.419 0.073,-0.441C0.088,-0.463 0.106,-0.481 0.129,-0.494C0.152,-0.507 0.177,-0.517 0.206,-0.523C0.234,-0.528 0.262,-0.531 0.291,-0.531C0.317,-0.531 0.343,-0.529 0.37,-0.526C0.397,-0.522 0.421,-0.515 0.443,-0.504C0.465,-0.493 0.483,-0.478 0.497,-0.46C0.511,-0.44 0.518,-0.415 0.518,-0.384L0.518,-0.115C0.518,-0.092 0.519,-0.069 0.522,-0.048C0.525,-0.027 0.529,-0.011 0.536,-0L0.392,-0C0.389,-0.008 0.387,-0.016 0.386,-0.025C0.384,-0.033 0.383,-0.041 0.382,-0.05C0.359,-0.027 0.333,-0.01 0.302,-0.001C0.271,0.008 0.24,0.013 0.208,0.013C0.183,0.013 0.16,0.01 0.139,0.004C0.118,-0.002 0.099,-0.011 0.083,-0.024C0.067,-0.037 0.055,-0.053 0.046,-0.072C0.037,-0.091 0.032,-0.114 0.032,-0.141C0.032,-0.17 0.037,-0.195 0.048,-0.214C0.058,-0.233 0.071,-0.248 0.088,-0.259C0.104,-0.27 0.123,-0.279 0.144,-0.285C0.165,-0.29 0.186,-0.295 0.207,-0.298C0.228,-0.301 0.249,-0.304 0.27,-0.306C0.291,-0.308 0.309,-0.311 0.325,-0.315C0.341,-0.319 0.354,-0.325 0.363,-0.333C0.372,-0.34 0.377,-0.351 0.376,-0.366C0.376,-0.381 0.374,-0.394 0.369,-0.403C0.364,-0.412 0.357,-0.419 0.349,-0.424C0.34,-0.428 0.331,-0.432 0.32,-0.434C0.309,-0.435 0.297,-0.436 0.284,-0.436C0.256,-0.436 0.234,-0.43 0.218,-0.418C0.202,-0.406 0.193,-0.386 0.19,-0.358L0.048,-0.358ZM0.376,-0.253C0.37,-0.248 0.363,-0.243 0.354,-0.241C0.345,-0.238 0.335,-0.235 0.325,-0.233C0.314,-0.231 0.303,-0.229 0.292,-0.228C0.281,-0.227 0.269,-0.225 0.258,-0.223C0.247,-0.221 0.237,-0.218 0.227,-0.215C0.216,-0.212 0.207,-0.207 0.2,-0.202C0.192,-0.196 0.186,-0.189 0.181,-0.18C0.176,-0.171 0.174,-0.16 0.174,-0.147C0.174,-0.134 0.176,-0.124 0.181,-0.115C0.186,-0.106 0.192,-0.099 0.2,-0.095C0.208,-0.09 0.217,-0.086 0.228,-0.084C0.239,-0.082 0.25,-0.081 0.261,-0.081C0.289,-0.081 0.311,-0.086 0.326,-0.095C0.341,-0.104 0.353,-0.116 0.36,-0.129C0.367,-0.141 0.372,-0.155 0.374,-0.168C0.375,-0.181 0.376,-0.192 0.376,-0.2L0.376,-0.253Z" style="fill:#e6e6e6;fill-rule:nonzero;"/>
                </g>
                <g transform="matrix(40,0,0,40,444.329,86.4307)">
                    <rect x="0.058" y="-0.714" width="0.142" height="0.714" style="fill:#e6e6e6;fill-rule:nonzero;"/>
                </g>
                <g transform="matrix(40,0,0,40,465.769,86.4307)">
                    <rect x="0.058" y="-0.714" width="0.142" height="0.714" style="fill:#e6e6e6;fill-rule:nonzero;"/>
                </g>
                <g transform="matrix(40,0,0,40,476.089,86.4307)">
                    <path d="M0.048,-0.358C0.05,-0.391 0.058,-0.419 0.073,-0.441C0.088,-0.463 0.106,-0.481 0.129,-0.494C0.152,-0.507 0.177,-0.517 0.206,-0.523C0.234,-0.528 0.262,-0.531 0.291,-0.531C0.317,-0.531 0.343,-0.529 0.37,-0.526C0.397,-0.522 0.421,-0.515 0.443,-0.504C0.465,-0.493 0.483,-0.478 0.497,-0.46C0.511,-0.44 0.518,-0.415 0.518,-0.384L0.518,-0.115C0.518,-0.092 0.519,-0.069 0.522,-0.048C0.525,-0.027 0.529,-0.011 0.536,-0L0.392,-0C0.389,-0.008 0.387,-0.016 0.386,-0.025C0.384,-0.033 0.383,-0.041 0.382,-0.05C0.359,-0.027 0.333,-0.01 0.302,-0.001C0.271,0.008 0.24,0.013 0.208,0.013C0.183,0.013 0.16,0.01 0.139,0.004C0.118,-0.002 0.099,-0.011 0.083,-0.024C0.067,-0.037 0.055,-0.053 0.046,-0.072C0.037,-0.091 0.032,-0.114 0.032,-0.141C0.032,-0.17 0.037,-0.195 0.048,-0.214C0.058,-0.233 0.071,-0.248 0.088,-0.259C0.104,-0.27 0.123,-0.279 0.144,-0.285C0.165,-0.29 0.186,-0.295 0.207,-0.298C0.228,-0.301 0.249,-0.304 0.27,-0.306C0.291,-0.308 0.309,-0.311 0.325,-0.315C0.341,-0.319 0.354,-0.325 0.363,-0.333C0.372,-0.34 0.377,-0.351 0.376,-0.366C0.376,-0.381 0.374,-0.394 0.369,-0.403C0.364,-0.412 0.357,-0.419 0.349,-0.424C0.34,-0.428 0.331,-0.432 0.32,-0.434C0.309,-0.435 0.297,-0.436 0.284,-0.436C0.256,-0.436 0.234,-0.43 0.218,-0.418C0.202,-0.406 0.193,-0.386 0.19,-0.358L0.048,-0.358ZM0.376,-0.253C0.37,-0.248 0.363,-0.243 0.354,-0.241C0.345,-0.238 0.335,-0.235 0.325,-0.233C0.314,-0.231 0.303,-0.229 0.292,-0.228C0.281,-0.227 0.269,-0.225 0.258,-0.223C0.247,-0.221 0.237,-0.218 0.227,-0.215C0.216,-0.212 0.207,-0.207 0.2,-0.202C0.192,-0.196 0.186,-0.189 0.181,-0.18C0.176,-0.171 0.174,-0.16 0.174,-0.147C0.174,-0.134 0.176,-0.124 0.181,-0.115C0.186,-0.106 0.192,-0.099 0.2,-0.095C0.208,-0.09 0.217,-0.086 0.228,-0.084C0.239,-0.082 0.25,-0.081 0.261,-0.081C0.289,-0.081 0.311,-0.086 0.326,-0.095C0.341,-0.104 0.353,-0.116 0.36,-0.129C0.367,-0.141 0.372,-0.155 0.374,-0.168C0.375,-0.181 0.376,-0.192 0.376,-0.2L0.376,-0.253Z" style="fill:#e6e6e6;fill-rule:nonzero;"/>
                </g>
                <g transform="matrix(40,0,0,40,499.049,86.4307)">
                    <path d="M0.054,-0.517L0.054,-0L0.196,-0L0.196,-0.271C0.196,-0.324 0.205,-0.362 0.222,-0.385C0.239,-0.407 0.267,-0.419 0.306,-0.419C0.34,-0.419 0.364,-0.409 0.377,-0.388C0.39,-0.367 0.397,-0.335 0.397,-0.292L0.397,-0L0.539,-0L0.539,-0.318C0.539,-0.35 0.536,-0.379 0.531,-0.406C0.525,-0.432 0.515,-0.454 0.501,-0.473C0.487,-0.491 0.468,-0.505 0.444,-0.516C0.419,-0.526 0.388,-0.531 0.35,-0.531C0.32,-0.531 0.291,-0.524 0.262,-0.511C0.233,-0.497 0.21,-0.475 0.192,-0.445L0.189,-0.445L0.189,-0.517L0.054,-0.517Z" style="fill:#e6e6e6;fill-rule:nonzero;"/>
                </g>
                <g transform="matrix(40,0,0,40,522.769,86.4307)">
                    <path d="M0.421,-0.26C0.421,-0.239 0.419,-0.218 0.415,-0.198C0.411,-0.178 0.404,-0.16 0.395,-0.145C0.386,-0.129 0.373,-0.116 0.358,-0.107C0.342,-0.098 0.322,-0.093 0.299,-0.093C0.277,-0.093 0.258,-0.098 0.243,-0.108C0.227,-0.117 0.214,-0.13 0.204,-0.146C0.193,-0.161 0.186,-0.179 0.181,-0.199C0.176,-0.219 0.174,-0.239 0.174,-0.259C0.174,-0.28 0.176,-0.301 0.181,-0.321C0.185,-0.34 0.192,-0.358 0.202,-0.373C0.211,-0.388 0.224,-0.401 0.24,-0.41C0.256,-0.419 0.276,-0.424 0.299,-0.424C0.322,-0.424 0.342,-0.419 0.357,-0.41C0.372,-0.401 0.385,-0.389 0.395,-0.374C0.404,-0.359 0.411,-0.341 0.415,-0.322C0.419,-0.302 0.421,-0.281 0.421,-0.26ZM0.423,-0.066L0.423,-0L0.558,-0L0.558,-0.714L0.416,-0.714L0.416,-0.454L0.414,-0.454C0.398,-0.479 0.376,-0.499 0.349,-0.512C0.321,-0.525 0.292,-0.531 0.261,-0.531C0.223,-0.531 0.19,-0.524 0.161,-0.509C0.132,-0.494 0.109,-0.474 0.09,-0.449C0.07,-0.424 0.056,-0.396 0.047,-0.364C0.037,-0.331 0.032,-0.298 0.032,-0.263C0.032,-0.227 0.037,-0.192 0.047,-0.159C0.056,-0.126 0.07,-0.096 0.09,-0.071C0.109,-0.045 0.133,-0.024 0.162,-0.01C0.191,0.006 0.225,0.013 0.264,0.013C0.298,0.013 0.329,0.007 0.356,-0.006C0.383,-0.018 0.404,-0.038 0.421,-0.066L0.423,-0.066Z" style="fill:#e6e6e6;fill-rule:nonzero;"/>
                </g>
            </g>
            <rect x="0" y="636" width="960" height="4" style="fill:#dadada;fill-rule:nonzero;"/>
            <path d="M4,640L4,40L956,40L956,640L960,640L960,36L0,36L0,640L4,640Z" style="fill:#dadada;fill-rule:nonzero;"/>
            <g transform="matrix(1,0,0,1,-23.7,-4.26326e-14)">
                <g transform="matrix(1,0,0,1,-716.105,0)">
                    <rect x="765.205" y="119.5" width="173.269" height="495.856" style="fill:#e6e6e6;"/>
                    <g>
                        <g transform="matrix(2.4881,0,0,1,139.611,67.2172)">
                            <rect x="284.2" y="92.6" width="25.5" height="9" style="fill:#8d8d8d;fill-rule:nonzero;"/>
                        </g>
                        <g transform="matrix(1,0,0,1,564.651,67.3172)">
                            <rect x="229.4" y="79" width="36" height="36" style="fill:#fff;fill-rule:nonzero;"/>
                            <path d="M263.4,81L263.4,113L231.4,113L231.4,81L263.4,81M267.4,77L227.4,77L227.4,117L267.4,117L267.4,77Z" style="fill:#0b0c0c;fill-rule:nonzero;"/>
                            <path d="M259.8,90.7L256.3,87.2L243.6,99.9L238.6,94.9L235.1,98.5L243.6,107L259.8,90.7" style="fill:#0b0c0c;fill-rule:nonzero;"/>
                            <path d="M267.4,77L267.4,117L227.4,117L227.4,77L267.4,77M270.4,74L224.4,74L224.4,120L270.4,120L270.4,74Z" style="fill:#fd0;fill-rule:nonzero;"/>
                        </g>
                    </g>
                    <g transform="matrix(1,0,0,1,0,61.3047)">
                        <g transform="matrix(2.4881,0,0,1,139.611,67.2172)">
                            <rect x="284.2" y="92.6" width="25.5" height="9" style="fill:#8d8d8d;fill-rule:nonzero;"/>
                        </g>
                        <g transform="matrix(1,0,0,1,564.651,67.3172)">
                            <rect x="229.4" y="79" width="36" height="36" style="fill:#fff;fill-rule:nonzero;"/>
                            <path d="M263.4,81L263.4,113L231.4,113L231.4,81L263.4,81M267.4,77L227.4,77L227.4,117L267.4,117L267.4,77Z" style="fill:#0b0c0c;fill-rule:nonzero;"/>
                        </g>
                    </g>
                    <g transform="matrix(1,0,0,1,0,120.486)">
                        <g transform="matrix(2.4881,0,0,1,139.611,67.2172)">
                            <rect x="284.2" y="92.6" width="25.5" height="9" style="fill:#8d8d8d;fill-rule:nonzero;"/>
                        </g>
                        <g transform="matrix(1,0,0,1,564.651,67.3172)">
                            <rect x="229.4" y="79" width="36" height="36" style="fill:#fff;fill-rule:nonzero;"/>
                            <path d="M263.4,81L263.4,113L231.4,113L231.4,81L263.4,81M267.4,77L227.4,77L227.4,117L267.4,117L267.4,77Z" style="fill:#0b0c0c;fill-rule:nonzero;"/>
                            <path d="M259.8,90.7L256.3,87.2L243.6,99.9L238.6,94.9L235.1,98.5L243.6,107L259.8,90.7" style="fill:#0b0c0c;fill-rule:nonzero;"/>
                        </g>
                    </g>
                    <g transform="matrix(1,0,0,1,0,182.928)">
                        <g transform="matrix(2.4881,0,0,1,139.611,67.2172)">
                            <rect x="284.2" y="92.6" width="25.5" height="9" style="fill:#8d8d8d;fill-rule:nonzero;"/>
                        </g>
                        <g transform="matrix(1,0,0,1,564.651,67.3172)">
                            <rect x="229.4" y="79" width="36" height="36" style="fill:#fff;fill-rule:nonzero;"/>
                            <path d="M263.4,81L263.4,113L231.4,113L231.4,81L263.4,81M267.4,77L227.4,77L227.4,117L267.4,117L267.4,77Z" style="fill:#0b0c0c;fill-rule:nonzero;"/>
                            <path d="M259.8,90.7L256.3,87.2L243.6,99.9L238.6,94.9L235.1,98.5L243.6,107L259.8,90.7" style="fill:#0b0c0c;fill-rule:nonzero;"/>
                        </g>
                    </g>
                </g>
                <g transform="matrix(1.13905,0,0,1.13905,-46.0223,-9.30187)">
                    <g transform="matrix(1,0,0,1,-1068,0)">
                        <rect x="1332.59" y="255.418" width="547.707" height="16.135" style="fill:#b0b0b0;"/>
                    </g>
                    <g transform="matrix(0.732408,0,0,1,-711.41,37.3125)">
                        <rect x="1332.59" y="255.418" width="547.707" height="16.135" style="fill:#b0b0b0;"/>
                    </g>
                    <g transform="matrix(0.948982,0,0,1,-1000.02,75.1222)">
                        <rect x="1332.59" y="255.418" width="547.707" height="16.135" style="fill:#b0b0b0;"/>
                    </g>
                    <g transform="matrix(0.948982,0,0,1,-1000.02,151.789)">
                        <rect x="1332.59" y="255.418" width="547.707" height="16.135" style="fill:#b0b0b0;"/>
                    </g>
                    <g transform="matrix(0.500063,0,0,1,-401.789,114.795)">
                        <rect x="1332.59" y="255.418" width="547.707" height="16.135" style="fill:#b0b0b0;"/>
                    </g>
                </g>
                <g transform="matrix(1.13905,0,0,1.13905,-46.0223,-10.2336)">
                    <g transform="matrix(1,0,0,1,-1050.23,60.9559)">
                        <rect x="1314.82" y="119.5" width="547.776" height="43.329" style="fill:#fff;"/>
                        <path d="M1862.6,119.5L1314.82,119.5L1314.82,162.829L1862.6,162.829L1862.6,119.5ZM1859.1,123L1859.1,159.329C1859.1,159.329 1318.32,159.329 1318.32,159.329C1318.32,159.329 1318.32,123 1318.32,123C1318.32,123 1859.1,123 1859.1,123L1859.1,123Z"/>
                    </g>
                    <g transform="matrix(1,0,0,1,-1068,0)">
                        <rect x="1880.3" y="180.62" width="46.38" height="43.212" style="fill:#1f70b8;"/>
                    </g>
                    <g transform="matrix(0.0722622,0,0,0.0722622,816.99,183.727)">
                        <path d="M429.707,399.578L360.521,330.392C381.489,302.943 392.989,269.648 392.993,234.516C392.993,192.177 376.504,152.37 346.561,122.432C316.624,92.495 276.822,76.005 234.478,76.005C192.139,76.005 152.332,92.495 122.395,122.432C60.592,184.24 60.592,284.802 122.395,346.599C152.332,376.542 192.139,393.031 234.478,393.031C269.611,393.027 302.905,381.527 330.354,360.559L399.54,429.745C403.702,433.911 409.165,435.995 414.624,435.995C420.082,435.995 425.546,433.911 429.707,429.745C438.04,421.417 438.04,407.906 429.707,399.578ZM152.561,316.432C107.395,271.266 107.4,197.771 152.561,152.599C174.441,130.724 203.535,118.672 234.478,118.672C265.426,118.672 294.514,130.724 316.395,152.599C338.275,174.479 350.327,203.573 350.327,234.516C350.327,265.464 338.275,294.552 316.395,316.432C294.514,338.312 265.426,350.365 234.478,350.365C203.535,350.365 174.441,338.313 152.561,316.432Z" style="fill:#fff;fill-rule:nonzero;"/>
                    </g>
                </g>
                <g transform="matrix(3.43078,0,0,3.43078,-4562.23,-817.301)">
                    <g transform="matrix(12,0,0,12,1403.89,286.544)">
                        <path d="M0.12,-0.197C0.129,-0.186 0.14,-0.176 0.153,-0.166C0.166,-0.156 0.181,-0.147 0.197,-0.139C0.212,-0.131 0.229,-0.125 0.248,-0.12C0.267,-0.115 0.287,-0.113 0.308,-0.113C0.348,-0.113 0.379,-0.121 0.4,-0.138C0.421,-0.155 0.432,-0.175 0.432,-0.199C0.432,-0.224 0.423,-0.243 0.404,-0.256C0.385,-0.269 0.356,-0.28 0.315,-0.287L0.293,-0.291C0.264,-0.296 0.235,-0.303 0.206,-0.312C0.177,-0.32 0.15,-0.332 0.127,-0.348C0.104,-0.364 0.084,-0.385 0.07,-0.409C0.055,-0.434 0.048,-0.466 0.048,-0.504C0.048,-0.526 0.053,-0.549 0.063,-0.573C0.072,-0.598 0.088,-0.62 0.109,-0.64C0.13,-0.661 0.158,-0.677 0.192,-0.69C0.225,-0.703 0.266,-0.71 0.314,-0.71C0.371,-0.71 0.421,-0.701 0.466,-0.682C0.51,-0.663 0.546,-0.639 0.573,-0.608L0.479,-0.52C0.46,-0.541 0.435,-0.558 0.405,-0.57C0.375,-0.582 0.344,-0.588 0.312,-0.588C0.275,-0.588 0.247,-0.581 0.226,-0.567C0.205,-0.553 0.195,-0.535 0.195,-0.512C0.195,-0.498 0.198,-0.485 0.205,-0.476C0.212,-0.466 0.221,-0.458 0.233,-0.451C0.245,-0.445 0.259,-0.44 0.276,-0.436C0.293,-0.431 0.312,-0.427 0.333,-0.423L0.344,-0.421C0.372,-0.416 0.4,-0.409 0.428,-0.401C0.455,-0.393 0.481,-0.381 0.503,-0.366C0.526,-0.351 0.544,-0.33 0.558,-0.305C0.572,-0.281 0.579,-0.249 0.579,-0.21C0.579,-0.175 0.572,-0.144 0.557,-0.117C0.542,-0.09 0.523,-0.067 0.499,-0.048C0.475,-0.029 0.447,-0.014 0.416,-0.005C0.384,0.005 0.351,0.01 0.317,0.01C0.282,0.01 0.25,0.007 0.221,0.001C0.191,-0.005 0.165,-0.013 0.141,-0.024C0.117,-0.035 0.096,-0.047 0.077,-0.06C0.058,-0.073 0.042,-0.088 0.028,-0.103L0.12,-0.197Z" style="fill-rule:nonzero;"/>
                    </g>
                    <g transform="matrix(12,0,0,12,1411.4,286.544)">
                        <path d="M0.171,-0.215C0.173,-0.199 0.178,-0.185 0.186,-0.172C0.193,-0.159 0.203,-0.148 0.215,-0.138C0.227,-0.129 0.24,-0.122 0.255,-0.117C0.271,-0.111 0.287,-0.109 0.304,-0.109C0.324,-0.109 0.346,-0.113 0.369,-0.12C0.392,-0.128 0.413,-0.139 0.432,-0.154L0.497,-0.059C0.473,-0.039 0.443,-0.022 0.407,-0.009C0.372,0.003 0.334,0.01 0.294,0.01C0.258,0.01 0.224,0.004 0.192,-0.009C0.16,-0.021 0.132,-0.039 0.108,-0.063C0.084,-0.086 0.065,-0.114 0.052,-0.148C0.038,-0.181 0.031,-0.219 0.031,-0.261C0.031,-0.3 0.037,-0.335 0.049,-0.369C0.061,-0.402 0.078,-0.431 0.1,-0.455C0.122,-0.479 0.149,-0.499 0.179,-0.512C0.21,-0.526 0.244,-0.533 0.281,-0.533C0.315,-0.533 0.347,-0.527 0.377,-0.514C0.407,-0.502 0.432,-0.484 0.454,-0.462C0.476,-0.439 0.493,-0.412 0.505,-0.38C0.518,-0.349 0.524,-0.314 0.524,-0.276L0.524,-0.215L0.171,-0.215ZM0.28,-0.416C0.251,-0.416 0.227,-0.406 0.207,-0.387C0.187,-0.368 0.175,-0.344 0.172,-0.317L0.383,-0.317C0.382,-0.345 0.372,-0.368 0.353,-0.387C0.333,-0.406 0.309,-0.416 0.28,-0.416Z" style="fill-rule:nonzero;"/>
                    </g>
                    <g transform="matrix(12,0,0,12,1418.02,286.544)">
                        <path d="M0.227,-0.212C0.21,-0.21 0.197,-0.204 0.187,-0.195C0.177,-0.186 0.172,-0.174 0.172,-0.159C0.172,-0.142 0.178,-0.127 0.19,-0.115C0.203,-0.103 0.221,-0.097 0.245,-0.097C0.271,-0.097 0.291,-0.104 0.305,-0.119C0.32,-0.133 0.327,-0.153 0.327,-0.177L0.327,-0.229L0.227,-0.212ZM0.349,-0.049C0.344,-0.043 0.337,-0.037 0.329,-0.03C0.321,-0.023 0.311,-0.016 0.301,-0.01C0.29,-0.005 0.277,0 0.262,0.004C0.248,0.008 0.231,0.01 0.213,0.01C0.187,0.01 0.163,0.006 0.141,-0.003C0.119,-0.011 0.1,-0.023 0.083,-0.038C0.066,-0.053 0.053,-0.07 0.044,-0.09C0.035,-0.109 0.03,-0.131 0.03,-0.154C0.03,-0.196 0.043,-0.23 0.069,-0.257C0.095,-0.284 0.131,-0.3 0.177,-0.307L0.327,-0.329L0.327,-0.339C0.327,-0.362 0.32,-0.381 0.306,-0.395C0.291,-0.408 0.268,-0.415 0.236,-0.415C0.222,-0.415 0.209,-0.413 0.195,-0.41C0.182,-0.407 0.169,-0.404 0.156,-0.4C0.143,-0.396 0.132,-0.392 0.121,-0.386C0.11,-0.381 0.101,-0.377 0.093,-0.373L0.04,-0.476C0.07,-0.493 0.103,-0.506 0.14,-0.517C0.177,-0.528 0.215,-0.533 0.254,-0.533C0.278,-0.533 0.302,-0.531 0.327,-0.526C0.351,-0.521 0.374,-0.511 0.394,-0.498C0.414,-0.485 0.43,-0.467 0.443,-0.444C0.456,-0.421 0.462,-0.391 0.462,-0.356L0.462,-0.141C0.462,-0.126 0.466,-0.115 0.474,-0.107C0.482,-0.1 0.493,-0.093 0.507,-0.087L0.446,0.01C0.421,0.007 0.401,0.001 0.386,-0.01C0.371,-0.02 0.359,-0.033 0.349,-0.049Z" style="fill-rule:nonzero;"/>
                    </g>
                    <g transform="matrix(12,0,0,12,1424.22,286.544)">
                        <path d="M0.352,-0.392L0.338,-0.392C0.319,-0.392 0.3,-0.39 0.283,-0.386C0.266,-0.382 0.25,-0.375 0.237,-0.365C0.223,-0.355 0.213,-0.341 0.205,-0.323C0.197,-0.305 0.193,-0.282 0.193,-0.254L0.193,-0L0.058,-0L0.058,-0.523L0.193,-0.523L0.193,-0.464C0.198,-0.473 0.206,-0.481 0.214,-0.489C0.223,-0.497 0.233,-0.505 0.245,-0.511C0.257,-0.517 0.27,-0.522 0.285,-0.526C0.299,-0.53 0.315,-0.532 0.332,-0.532L0.352,-0.532L0.352,-0.392Z" style="fill-rule:nonzero;"/>
                    </g>
                    <g transform="matrix(12,0,0,12,1428.75,286.544)">
                        <path d="M0.17,-0.259C0.17,-0.242 0.172,-0.225 0.177,-0.208C0.181,-0.191 0.188,-0.175 0.198,-0.162C0.207,-0.148 0.219,-0.137 0.234,-0.128C0.249,-0.12 0.267,-0.115 0.287,-0.115C0.3,-0.115 0.313,-0.117 0.323,-0.121C0.334,-0.124 0.344,-0.129 0.353,-0.135C0.361,-0.142 0.369,-0.149 0.376,-0.158C0.382,-0.167 0.388,-0.176 0.393,-0.186L0.511,-0.125C0.503,-0.104 0.491,-0.086 0.476,-0.069C0.462,-0.053 0.444,-0.039 0.425,-0.027C0.405,-0.015 0.384,-0.006 0.36,0C0.336,0.007 0.311,0.01 0.284,0.01C0.247,0.01 0.214,0.003 0.183,-0.011C0.152,-0.025 0.125,-0.044 0.103,-0.068C0.08,-0.092 0.063,-0.121 0.05,-0.154C0.037,-0.187 0.031,-0.222 0.031,-0.261C0.031,-0.3 0.037,-0.335 0.05,-0.369C0.063,-0.402 0.08,-0.431 0.103,-0.455C0.125,-0.479 0.152,-0.499 0.183,-0.512C0.214,-0.526 0.247,-0.533 0.284,-0.533C0.311,-0.533 0.336,-0.53 0.36,-0.524C0.384,-0.517 0.405,-0.508 0.425,-0.496C0.444,-0.484 0.462,-0.47 0.476,-0.454C0.491,-0.437 0.503,-0.418 0.511,-0.398L0.393,-0.337C0.388,-0.347 0.382,-0.356 0.376,-0.365C0.369,-0.374 0.361,-0.381 0.353,-0.387C0.344,-0.394 0.334,-0.399 0.323,-0.403C0.313,-0.406 0.3,-0.408 0.287,-0.408C0.267,-0.408 0.249,-0.404 0.234,-0.395C0.219,-0.387 0.207,-0.375 0.198,-0.362C0.188,-0.348 0.181,-0.332 0.177,-0.315C0.172,-0.298 0.17,-0.28 0.17,-0.263L0.17,-0.259Z" style="fill-rule:nonzero;"/>
                    </g>
                    <g transform="matrix(12,0,0,12,1435.19,286.544)">
                        <path d="M0.058,-0.7L0.193,-0.7L0.193,-0.478C0.2,-0.485 0.208,-0.492 0.217,-0.499C0.226,-0.505 0.236,-0.511 0.247,-0.516C0.257,-0.521 0.269,-0.525 0.282,-0.529C0.296,-0.532 0.31,-0.533 0.326,-0.533C0.354,-0.533 0.38,-0.529 0.402,-0.519C0.425,-0.51 0.444,-0.497 0.459,-0.481C0.475,-0.465 0.486,-0.446 0.495,-0.424C0.503,-0.402 0.507,-0.378 0.507,-0.353L0.507,-0L0.372,-0L0.372,-0.304C0.372,-0.323 0.37,-0.338 0.366,-0.351C0.361,-0.364 0.356,-0.375 0.348,-0.383C0.341,-0.391 0.332,-0.396 0.323,-0.4C0.313,-0.404 0.302,-0.406 0.29,-0.406C0.276,-0.406 0.264,-0.403 0.252,-0.398C0.24,-0.394 0.229,-0.386 0.221,-0.376C0.212,-0.366 0.205,-0.354 0.2,-0.339C0.195,-0.324 0.193,-0.306 0.193,-0.286L0.193,-0L0.058,-0L0.058,-0.7Z" style="fill-rule:nonzero;"/>
                    </g>
                </g>
            </g>
        </g>
    </g>
</svg>
